<?xml version="1.0" encoding="UTF-8" standalone="no"?>
<!DOCTYPE svg PUBLIC "-//W3C//DTD SVG 1.1//EN" "http://www.w3.org/Graphics/SVG/1.1/DTD/svg11.dtd">
<svg xmlns="http://www.w3.org/2000/svg" version="1.1" viewBox="0.00 0.00 1563.00 1563.00">
<path fill="#ffffff" d="
  M 1563.00 0.00
  L 1563.00 1563.00
  L 0.00 1563.00
  L 0.00 0.00
  L 1563.00 0.00
  Z
  M 1497.74 368.30
  L 637.55 921.93
  A 0.39 0.39 0.0 0 0 637.54 922.58
  L 1054.25 1202.20
  A 0.49 0.49 0.0 0 0 1054.95 1202.03
  L 1507.34 362.47
  A 0.35 0.34 -83.4 0 0 1506.95 361.97
  L 55.00 764.80
  A 0.21 0.21 0.0 0 0 55.00 765.21
  L 400.51 861.83
  A 1.67 1.63 40.3 0 0 401.65 861.75
  L 1495.77 367.37
  A 0.13 0.12 -25.4 0 1 1495.93 367.42
  L 1495.93 367.43
  A 0.13 0.13 0.0 0 1 1495.87 367.60
  L 421.56 883.05
  A 0.51 0.50 -22.9 0 0 421.30 883.67
  L 531.78 1194.76
  A 0.19 0.19 0.0 0 0 532.10 1194.83
  Q 532.23 1194.68 532.30 1194.28
  Q 532.50 1193.10 588.61 913.09
  A 0.84 0.81 -10.6 0 1 588.99 912.55
  L 1497.62 368.02
  A 0.13 0.13 0.0 0 1 1497.79 368.06
  L 1497.79 368.07
  A 0.17 0.17 0.0 0 1 1497.74 368.30
  Z
  M 560.41 1201.16
  A 0.18 0.18 0.0 0 0 560.71 1201.34
  L 746.69 1031.65
  A 0.50 0.49 42.2 0 0 746.65 1030.89
  L 627.45 942.83
  A 0.37 0.37 0.0 0 0 626.87 943.03
  L 560.41 1201.16
  Z"
/>
<path fill="#fb8500" d="
  M 1497.74 368.30
  A 0.17 0.17 0.0 0 0 1497.79 368.07
  L 1497.79 368.06
  A 0.13 0.13 0.0 0 0 1497.62 368.02
  L 588.99 912.55
  A 0.84 0.81 -10.6 0 0 588.61 913.09
  Q 532.50 1193.10 532.30 1194.28
  Q 532.23 1194.68 532.10 1194.83
  A 0.19 0.19 0.0 0 1 531.78 1194.76
  L 421.30 883.67
  A 0.51 0.50 -22.9 0 1 421.56 883.05
  L 1495.87 367.60
  A 0.13 0.13 0.0 0 0 1495.93 367.43
  L 1495.93 367.42
  A 0.13 0.12 -25.4 0 0 1495.77 367.37
  L 401.65 861.75
  A 1.67 1.63 40.3 0 1 400.51 861.83
  L 55.00 765.21
  A 0.21 0.21 0.0 0 1 55.00 764.80
  L 1506.95 361.97
  A 0.35 0.34 -83.4 0 1 1507.34 362.47
  L 1054.95 1202.03
  A 0.49 0.49 0.0 0 1 1054.25 1202.20
  L 637.54 922.58
  A 0.39 0.39 0.0 0 1 637.55 921.93
  L 1497.74 368.30
  Z
  M 1497.51 367.00
  Q 1497.70 367.08 1498.11 366.79
  A 0.23 0.23 0.0 0 0 1497.90 366.39
  Q 1497.51 366.53 1497.50 366.54
  A 0.26 0.26 0.0 0 0 1497.51 367.00
  Z
  M 1499.31 366.99
  L 1498.70 367.16
  A 0.21 0.20 -42.3 0 0 1498.68 367.55
  Q 1499.00 367.66 1499.47 367.33
  A 0.19 0.19 0.0 0 0 1499.31 366.99
  Z"
/>
<path fill="#ffffff" d="
  M 1497.50 366.54
  Q 1497.51 366.53 1497.90 366.39
  A 0.23 0.23 0.0 0 1 1498.11 366.79
  Q 1497.70 367.08 1497.51 367.00
  A 0.26 0.26 0.0 0 1 1497.50 366.54
  Z"
/>
<path fill="#ffffff" d="
  M 1499.31 366.99
  A 0.19 0.19 0.0 0 1 1499.47 367.33
  Q 1499.00 367.66 1498.68 367.55
  A 0.21 0.20 -42.3 0 1 1498.70 367.16
  L 1499.31 366.99
  Z"
/>
<path fill="#fb8500" d="
  M 560.41 1201.16
  L 626.87 943.03
  A 0.37 0.37 0.0 0 1 627.45 942.83
  L 746.65 1030.89
  A 0.50 0.49 42.2 0 1 746.69 1031.65
  L 560.71 1201.34
  A 0.18 0.18 0.0 0 1 560.41 1201.16
  Z"
/>
</svg>
