<?xml version="1.0" encoding="UTF-8" standalone="no"?>
<!DOCTYPE svg PUBLIC "-//W3C//DTD SVG 1.1//EN" "http://www.w3.org/Graphics/SVG/1.1/DTD/svg11.dtd">
<svg xmlns="http://www.w3.org/2000/svg" version="1.1" viewBox="0.00 0.00 1563.00 1563.00">
<path fill="#033047" d="
  M 1563.00 0.00
  L 1563.00 1563.00
  L 0.00 1563.00
  L 0.00 0.00
  L 1563.00 0.00
  Z
  M 1493.91 368.38
  A 0.15 0.15 0.0 0 1 1493.83 368.57
  L 421.56 883.05
  A 0.53 0.52 67.7 0 0 421.30 883.69
  L 531.78 1194.78
  A 0.20 0.20 0.0 0 0 532.17 1194.75
  L 588.58 913.21
  A 1.06 1.05 80.4 0 1 589.08 912.50
  L 1495.92 369.04
  A 0.17 0.16 58.2 0 1 1496.15 369.10
  L 1496.16 369.11
  A 0.18 0.17 -34.2 0 1 1496.11 369.35
  L 637.51 921.95
  A 0.37 0.36 45.3 0 0 637.51 922.56
  L 1054.25 1202.21
  A 0.50 0.49 -58.9 0 0 1054.95 1202.03
  L 1507.34 362.48
  A 0.35 0.35 0.0 0 0 1506.94 361.97
  Q 55.43 764.68 55.40 764.68
  Q 55.04 764.69 54.92 764.93
  A 0.21 0.20 -70.0 0 0 55.05 765.22
  L 400.51 861.84
  A 1.70 1.67 40.0 0 0 401.65 861.75
  L 1493.71 368.30
  A 0.14 0.14 0.0 0 1 1493.90 368.37
  L 1493.91 368.38
  Z
  M 560.40 1201.23
  A 0.16 0.16 0.0 0 0 560.66 1201.39
  L 746.69 1031.66
  A 0.50 0.50 0.0 0 0 746.65 1030.89
  L 627.49 942.85
  A 0.40 0.39 25.1 0 0 626.87 943.07
  L 560.40 1201.23
  Z"
/>
<path fill="#fb8500" d="
  M 1493.91 368.38
  L 1493.90 368.37
  A 0.14 0.14 0.0 0 0 1493.71 368.30
  L 401.65 861.75
  A 1.70 1.67 40.0 0 1 400.51 861.84
  L 55.05 765.22
  A 0.21 0.20 -70.0 0 1 54.92 764.93
  Q 55.04 764.69 55.40 764.68
  Q 55.43 764.68 1506.94 361.97
  A 0.35 0.35 0.0 0 1 1507.34 362.48
  L 1054.95 1202.03
  A 0.50 0.49 -58.9 0 1 1054.25 1202.21
  L 637.51 922.56
  A 0.37 0.36 45.3 0 1 637.51 921.95
  L 1496.11 369.35
  A 0.18 0.17 -34.2 0 0 1496.16 369.11
  L 1496.15 369.10
  A 0.17 0.16 58.2 0 0 1495.92 369.04
  L 589.08 912.50
  A 1.06 1.05 80.4 0 0 588.58 913.21
  L 532.17 1194.75
  A 0.20 0.20 0.0 0 1 531.78 1194.78
  L 421.30 883.69
  A 0.53 0.52 67.7 0 1 421.56 883.05
  L 1493.83 368.57
  A 0.15 0.15 0.0 0 0 1493.91 368.38
  Z
  M 1500.96 365.78
  Q 1500.61 365.88 1500.51 366.05
  A 0.26 0.25 12.2 0 0 1500.76 366.43
  Q 1500.96 366.42 1501.19 366.23
  A 0.26 0.26 0.0 0 0 1500.96 365.78
  Z
  M 1495.74 367.44
  Q 1495.12 367.49 1494.30 368.12
  A 0.13 0.13 0.0 0 0 1494.44 368.34
  L 1495.81 367.68
  A 0.13 0.13 0.0 0 0 1495.74 367.44
  Z
  M 1497.03 368.85
  Q 1497.50 368.68 1497.55 368.59
  A 0.24 0.24 0.0 0 0 1497.25 368.26
  Q 1496.79 368.44 1496.78 368.45
  A 0.24 0.24 0.0 0 0 1497.03 368.85
  Z"
/>
<path fill="#033047" d="
  M 1501.19 366.23
  Q 1500.96 366.42 1500.76 366.43
  A 0.26 0.25 12.2 0 1 1500.51 366.05
  Q 1500.61 365.88 1500.96 365.78
  A 0.26 0.26 0.0 0 1 1501.19 366.23
  Z"
/>
<path fill="#033047" d="
  M 1495.81 367.68
  L 1494.44 368.34
  A 0.13 0.13 0.0 0 1 1494.30 368.12
  Q 1495.12 367.49 1495.74 367.44
  A 0.13 0.13 0.0 0 1 1495.81 367.68
  Z"
/>
<path fill="#033047" d="
  M 1496.78 368.45
  Q 1496.79 368.44 1497.25 368.26
  A 0.24 0.24 0.0 0 1 1497.55 368.59
  Q 1497.50 368.68 1497.03 368.85
  A 0.24 0.24 0.0 0 1 1496.78 368.45
  Z"
/>
<path fill="#fb8500" d="
  M 560.40 1201.23
  L 626.87 943.07
  A 0.40 0.39 25.1 0 1 627.49 942.85
  L 746.65 1030.89
  A 0.50 0.50 0.0 0 1 746.69 1031.66
  L 560.66 1201.39
  A 0.16 0.16 0.0 0 1 560.40 1201.23
  Z"
/>
</svg>
