<?xml version="1.0" encoding="UTF-8" standalone="no"?>
<!DOCTYPE svg PUBLIC "-//W3C//DTD SVG 1.1//EN" "http://www.w3.org/Graphics/SVG/1.1/DTD/svg11.dtd">
<svg xmlns="http://www.w3.org/2000/svg" version="1.1" viewBox="0.00 0.00 1563.00 1563.00">
<path fill="#cce6f4" d="
  M 1563.00 0.00
  L 1563.00 1563.00
  L 0.00 1563.00
  L 0.00 0.00
  L 1563.00 0.00
  Z
  M 531.94 1194.82
  A 0.18 0.17 18.2 0 0 532.19 1194.70
  L 588.58 913.23
  A 1.15 1.14 -9.9 0 1 589.11 912.48
  L 1497.19 368.28
  A 0.15 0.15 0.0 0 1 1497.40 368.33
  L 1497.40 368.34
  A 0.15 0.15 0.0 0 1 1497.35 368.55
  L 637.56 921.92
  A 0.40 0.40 0.0 0 0 637.55 922.59
  L 1054.25 1202.21
  A 0.49 0.49 0.0 0 0 1054.95 1202.03
  L 1507.35 362.47
  A 0.35 0.35 0.0 0 0 1506.95 361.97
  L 55.03 764.79
  A 0.22 0.22 0.0 0 0 55.03 765.21
  L 400.57 861.85
  A 1.56 1.51 39.6 0 0 401.59 861.77
  L 1495.70 367.39
  A 0.22 0.22 0.0 0 1 1495.88 367.39
  Q 1496.01 367.44 1496.07 367.54
  A 0.07 0.07 0.0 0 1 1496.04 367.64
  L 421.69 882.93
  A 0.69 0.68 -22.8 0 0 421.34 883.78
  L 531.75 1194.68
  A 0.17 0.15 85.3 0 0 531.86 1194.79
  Q 531.92 1194.81 531.94 1194.82
  Z
  M 560.43 1201.11
  A 0.19 0.19 0.0 0 0 560.75 1201.30
  L 746.69 1031.66
  A 0.50 0.50 0.0 0 0 746.65 1030.89
  L 627.48 942.84
  A 0.39 0.39 0.0 0 0 626.87 943.06
  L 560.43 1201.11
  Z"
/>
<path fill="#fb8500" d="
  M 531.94 1194.82
  Q 531.92 1194.81 531.86 1194.79
  A 0.17 0.15 85.3 0 1 531.75 1194.68
  L 421.34 883.78
  A 0.69 0.68 -22.8 0 1 421.69 882.93
  L 1496.04 367.64
  A 0.07 0.07 0.0 0 0 1496.07 367.54
  Q 1496.01 367.44 1495.88 367.39
  A 0.22 0.22 0.0 0 0 1495.70 367.39
  L 401.59 861.77
  A 1.56 1.51 39.6 0 1 400.57 861.85
  L 55.03 765.21
  A 0.22 0.22 0.0 0 1 55.03 764.79
  L 1506.95 361.97
  A 0.35 0.35 0.0 0 1 1507.35 362.47
  L 1054.95 1202.03
  A 0.49 0.49 0.0 0 1 1054.25 1202.21
  L 637.55 922.59
  A 0.40 0.40 0.0 0 1 637.56 921.92
  L 1497.35 368.55
  A 0.15 0.15 0.0 0 0 1497.40 368.34
  L 1497.40 368.33
  A 0.15 0.15 0.0 0 0 1497.19 368.28
  L 589.11 912.48
  A 1.15 1.14 -9.9 0 0 588.58 913.23
  L 532.19 1194.70
  A 0.18 0.17 18.2 0 1 531.94 1194.82
  Z"
/>
<path fill="#fb8500" d="
  M 560.43 1201.11
  L 626.87 943.06
  A 0.39 0.39 0.0 0 1 627.48 942.84
  L 746.65 1030.89
  A 0.50 0.50 0.0 0 1 746.69 1031.66
  L 560.75 1201.30
  A 0.19 0.19 0.0 0 1 560.43 1201.11
  Z"
/>
</svg>
