<?xml version="1.0" encoding="UTF-8" standalone="no"?>
<!DOCTYPE svg PUBLIC "-//W3C//DTD SVG 1.1//EN" "http://www.w3.org/Graphics/SVG/1.1/DTD/svg11.dtd">
<svg xmlns="http://www.w3.org/2000/svg" version="1.1" viewBox="0.00 0.00 1563.00 1563.00">
<path fill="#033047" d="
  M 1563.00 0.00
  L 1563.00 1563.00
  L 0.00 1563.00
  L 0.00 0.00
  L 1563.00 0.00
  Z
  M 1498.48 367.82
  L 637.55 921.92
  A 0.40 0.40 0.0 0 0 637.55 922.58
  L 1054.25 1202.20
  A 0.49 0.48 30.9 0 0 1054.95 1202.03
  L 1507.41 362.36
  A 0.30 0.30 0.0 0 0 1507.07 361.93
  L 54.92 764.82
  A 0.19 0.19 0.0 0 0 54.92 765.18
  L 400.62 861.86
  A 1.36 1.34 -48.8 0 0 401.56 861.79
  L 1495.76 367.37
  A 0.31 0.30 -46.4 0 1 1495.96 367.36
  Q 1496.01 367.37 1496.07 367.35
  A 0.11 0.05 -50.9 0 1 1496.03 367.52
  Q 904.57 651.30 421.56 883.05
  A 0.51 0.51 0.0 0 0 421.30 883.68
  L 531.78 1194.78
  A 0.21 0.21 0.0 0 0 532.18 1194.75
  L 588.58 913.20
  A 1.09 1.07 -9.5 0 1 589.08 912.51
  L 1498.40 367.55
  A 0.09 0.09 0.0 0 1 1498.52 367.58
  L 1498.53 367.59
  A 0.17 0.17 0.0 0 1 1498.48 367.82
  Z
  M 560.40 1201.23
  A 0.16 0.16 0.0 0 0 560.66 1201.39
  L 746.80 1031.56
  A 0.38 0.37 -48.1 0 0 746.77 1030.98
  L 627.44 942.81
  A 0.36 0.36 0.0 0 0 626.88 943.01
  L 560.40 1201.23
  Z"
/>
<path fill="#cce6f4" d="
  M 1498.48 367.82
  A 0.17 0.17 0.0 0 0 1498.53 367.59
  L 1498.52 367.58
  A 0.09 0.09 0.0 0 0 1498.40 367.55
  L 589.08 912.51
  A 1.09 1.07 -9.5 0 0 588.58 913.20
  L 532.18 1194.75
  A 0.21 0.21 0.0 0 1 531.78 1194.78
  L 421.30 883.68
  A 0.51 0.51 0.0 0 1 421.56 883.05
  Q 904.57 651.30 1496.03 367.52
  A 0.11 0.05 -50.9 0 0 1496.07 367.35
  Q 1496.01 367.37 1495.96 367.36
  A 0.31 0.30 -46.4 0 0 1495.76 367.37
  L 401.56 861.79
  A 1.36 1.34 -48.8 0 1 400.62 861.86
  L 54.92 765.18
  A 0.19 0.19 0.0 0 1 54.92 764.82
  L 1507.07 361.93
  A 0.30 0.30 0.0 0 1 1507.41 362.36
  L 1054.95 1202.03
  A 0.49 0.48 30.9 0 1 1054.25 1202.20
  L 637.55 922.58
  A 0.40 0.40 0.0 0 1 637.55 921.92
  L 1498.48 367.82
  Z"
/>
<path fill="#cce6f4" d="
  M 560.40 1201.23
  L 626.88 943.01
  A 0.36 0.36 0.0 0 1 627.44 942.81
  L 746.77 1030.98
  A 0.38 0.37 -48.1 0 1 746.80 1031.56
  L 560.66 1201.39
  A 0.16 0.16 0.0 0 1 560.40 1201.23
  Z"
/>
</svg>
