<?xml version="1.0" encoding="UTF-8" standalone="no"?>
<!DOCTYPE svg PUBLIC "-//W3C//DTD SVG 1.1//EN" "http://www.w3.org/Graphics/SVG/1.1/DTD/svg11.dtd">
<svg xmlns="http://www.w3.org/2000/svg" version="1.1" viewBox="0.00 0.00 1563.00 1563.00">
<path fill="#033047" d="
  M 1563.00 0.00
  L 1563.00 1563.00
  L 0.00 1563.00
  L 0.00 0.00
  L 1563.00 0.00
  Z
  M 1498.08 367.92
  A 0.14 0.14 0.0 0 1 1498.03 368.11
  L 637.35 922.05
  A 0.24 0.24 0.0 0 0 637.35 922.45
  L 1054.25 1202.21
  A 0.50 0.49 -58.9 0 0 1054.95 1202.03
  L 1507.38 362.41
  A 0.32 0.32 0.0 0 0 1507.01 361.95
  L 54.98 764.80
  A 0.21 0.21 0.0 0 0 54.98 765.20
  L 400.59 861.85
  A 1.46 1.43 -48.5 0 0 401.59 861.78
  L 1495.68 367.41
  A 0.10 0.08 -29.4 0 1 1495.80 367.43
  Q 1495.82 367.45 1495.84 367.46
  A 0.15 0.08 -34.5 0 1 1495.75 367.65
  Q 1190.74 514.00 421.71 882.98
  A 0.69 0.68 -22.8 0 0 421.36 883.83
  L 531.74 1194.67
  A 0.25 0.24 -49.3 0 0 532.21 1194.63
  L 588.58 913.21
  A 1.05 1.04 -10.0 0 1 589.08 912.51
  L 1497.88 367.87
  A 0.14 0.14 0.0 0 1 1498.07 367.91
  L 1498.08 367.92
  Z
  M 560.51 1200.77
  A 0.31 0.31 0.0 0 0 561.02 1201.08
  L 746.86 1031.50
  A 0.31 0.31 0.0 0 0 746.84 1031.03
  L 627.39 942.77
  A 0.31 0.31 0.0 0 0 626.91 942.95
  L 560.51 1200.77
  Z"
/>
<path fill="#ffffff" d="
  M 1498.08 367.92
  L 1498.07 367.91
  A 0.14 0.14 0.0 0 0 1497.88 367.87
  L 589.08 912.51
  A 1.05 1.04 -10.0 0 0 588.58 913.21
  L 532.21 1194.63
  A 0.25 0.24 -49.3 0 1 531.74 1194.67
  L 421.36 883.83
  A 0.69 0.68 -22.8 0 1 421.71 882.98
  Q 1190.74 514.00 1495.75 367.65
  A 0.15 0.08 -34.5 0 0 1495.84 367.46
  Q 1495.82 367.45 1495.80 367.43
  A 0.10 0.08 -29.4 0 0 1495.68 367.41
  L 401.59 861.78
  A 1.46 1.43 -48.5 0 1 400.59 861.85
  L 54.98 765.20
  A 0.21 0.21 0.0 0 1 54.98 764.80
  L 1507.01 361.95
  A 0.32 0.32 0.0 0 1 1507.38 362.41
  L 1054.95 1202.03
  A 0.50 0.49 -58.9 0 1 1054.25 1202.21
  L 637.35 922.45
  A 0.24 0.24 0.0 0 1 637.35 922.05
  L 1498.03 368.11
  A 0.14 0.14 0.0 0 0 1498.08 367.92
  Z"
/>
<path fill="#ffffff" d="
  M 560.51 1200.77
  L 626.91 942.95
  A 0.31 0.31 0.0 0 1 627.39 942.77
  L 746.84 1031.03
  A 0.31 0.31 0.0 0 1 746.86 1031.50
  L 561.02 1201.08
  A 0.31 0.31 0.0 0 1 560.51 1200.77
  Z"
/>
</svg>
