<?xml version="1.0" encoding="UTF-8" standalone="no"?>
<!DOCTYPE svg PUBLIC "-//W3C//DTD SVG 1.1//EN" "http://www.w3.org/Graphics/SVG/1.1/DTD/svg11.dtd">
<svg xmlns="http://www.w3.org/2000/svg" version="1.1" viewBox="0.00 0.00 1563.00 1563.00">
<path fill="#cce6f4" d="
  M 1563.00 0.00
  L 1563.00 1563.00
  L 0.00 1563.00
  L 0.00 0.00
  L 1563.00 0.00
  Z
  M 1496.16 369.11
  A 0.19 0.19 0.0 0 1 1496.11 369.37
  L 637.44 922.01
  A 0.29 0.29 0.0 0 0 637.44 922.50
  L 1054.25 1202.20
  A 0.48 0.48 0.0 0 0 1054.94 1202.03
  L 1507.30 362.56
  A 0.39 0.38 -83.6 0 0 1506.86 362.00
  L 55.12 764.77
  A 0.24 0.24 0.0 0 0 55.12 765.24
  L 400.48 861.82
  A 1.80 1.74 -48.4 0 0 401.70 861.73
  L 1484.23 372.58
  A 0.21 0.21 0.0 0 1 1484.50 372.67
  L 1484.63 372.95
  A 0.07 0.06 -24.7 0 1 1484.59 373.04
  L 421.78 882.94
  A 0.77 0.77 0.0 0 0 421.39 883.90
  L 531.70 1194.53
  A 0.28 0.27 -49.1 0 0 532.23 1194.49
  L 588.51 913.54
  A 1.86 1.82 -10.1 0 1 589.37 912.33
  L 1495.91 369.04
  A 0.19 0.18 57.6 0 1 1496.16 369.10
  L 1496.16 369.11
  Z
  M 560.42 1201.15
  A 0.18 0.18 0.0 0 0 560.72 1201.33
  L 746.72 1031.63
  A 0.45 0.45 0.0 0 0 746.69 1030.93
  L 627.41 942.80
  A 0.33 0.33 0.0 0 0 626.89 942.99
  L 560.42 1201.15
  Z"
/>
<path fill="#ffffff" d="
  M 1496.16 369.11
  L 1496.16 369.10
  A 0.19 0.18 57.6 0 0 1495.91 369.04
  L 589.37 912.33
  A 1.86 1.82 -10.1 0 0 588.51 913.54
  L 532.23 1194.49
  A 0.28 0.27 -49.1 0 1 531.70 1194.53
  L 421.39 883.90
  A 0.77 0.77 0.0 0 1 421.78 882.94
  L 1484.59 373.04
  A 0.07 0.06 -24.7 0 0 1484.63 372.95
  L 1484.50 372.67
  A 0.21 0.21 0.0 0 0 1484.23 372.58
  L 401.70 861.73
  A 1.80 1.74 -48.4 0 1 400.48 861.82
  L 55.12 765.24
  A 0.24 0.24 0.0 0 1 55.12 764.77
  L 1506.86 362.00
  A 0.39 0.38 -83.6 0 1 1507.30 362.56
  L 1054.94 1202.03
  A 0.48 0.48 0.0 0 1 1054.25 1202.20
  L 637.44 922.50
  A 0.29 0.29 0.0 0 1 637.44 922.01
  L 1496.11 369.37
  A 0.19 0.19 0.0 0 0 1496.16 369.11
  Z"
/>
<path fill="#ffffff" d="
  M 560.42 1201.15
  L 626.89 942.99
  A 0.33 0.33 0.0 0 1 627.41 942.80
  L 746.69 1030.93
  A 0.45 0.45 0.0 0 1 746.72 1031.63
  L 560.72 1201.33
  A 0.18 0.18 0.0 0 1 560.42 1201.15
  Z"
/>
</svg>
