<?xml version="1.0" encoding="UTF-8" standalone="no"?>
<!DOCTYPE svg PUBLIC "-//W3C//DTD SVG 1.1//EN" "http://www.w3.org/Graphics/SVG/1.1/DTD/svg11.dtd">
<svg xmlns="http://www.w3.org/2000/svg" version="1.1" viewBox="0.00 0.00 1563.00 1563.00">
<path fill="#ffffff" d="
  M 1563.00 0.00
  L 1563.00 1563.00
  L 0.00 1563.00
  L 0.00 0.00
  L 1563.00 0.00
  Z
  M 1494.41 368.14
  A 0.14 0.14 0.0 0 1 1494.34 368.33
  L 421.82 882.93
  A 0.82 0.82 0.0 0 0 421.40 883.95
  L 531.78 1194.75
  A 0.22 0.21 41.5 0 0 532.19 1194.73
  L 588.58 913.20
  A 1.08 1.03 81.9 0 1 589.07 912.51
  L 1496.19 368.88
  A 0.18 0.17 -31.8 0 1 1496.43 368.93
  L 1496.43 368.94
  A 0.18 0.17 58.2 0 1 1496.38 369.18
  L 637.52 921.95
  A 0.37 0.36 45.3 0 0 637.52 922.56
  L 1054.25 1202.20
  A 0.49 0.49 0.0 0 0 1054.95 1202.03
  L 1507.37 362.41
  A 0.32 0.32 0.0 0 0 1507.01 361.95
  L 55.21 764.73
  A 0.28 0.27 -45.2 0 0 55.21 765.26
  L 400.54 861.84
  A 1.59 1.58 40.8 0 0 401.63 861.76
  L 1494.22 368.07
  A 0.14 0.14 0.0 0 1 1494.41 368.14
  Z
  M 560.52 1200.74
  A 0.31 0.31 0.0 0 0 561.03 1201.05
  L 746.85 1031.50
  A 0.31 0.31 0.0 0 0 746.83 1031.03
  L 627.38 942.77
  A 0.31 0.31 0.0 0 0 626.90 942.95
  L 560.52 1200.74
  Z"
/>
<path fill="#033047" d="
  M 1494.41 368.14
  A 0.14 0.14 0.0 0 0 1494.22 368.07
  L 401.63 861.76
  A 1.59 1.58 40.8 0 1 400.54 861.84
  L 55.21 765.26
  A 0.28 0.27 -45.2 0 1 55.21 764.73
  L 1507.01 361.95
  A 0.32 0.32 0.0 0 1 1507.37 362.41
  L 1054.95 1202.03
  A 0.49 0.49 0.0 0 1 1054.25 1202.20
  L 637.52 922.56
  A 0.37 0.36 45.3 0 1 637.52 921.95
  L 1496.38 369.18
  A 0.18 0.17 58.2 0 0 1496.43 368.94
  L 1496.43 368.93
  A 0.18 0.17 -31.8 0 0 1496.19 368.88
  L 589.07 912.51
  A 1.08 1.03 81.9 0 0 588.58 913.20
  L 532.19 1194.73
  A 0.22 0.21 41.5 0 1 531.78 1194.75
  L 421.40 883.95
  A 0.82 0.82 0.0 0 1 421.82 882.93
  L 1494.34 368.33
  A 0.14 0.14 0.0 0 0 1494.41 368.14
  Z
  M 1497.36 366.53
  A 0.14 0.14 0.0 0 0 1497.44 366.80
  L 1497.69 366.76
  A 0.12 0.12 0.0 0 0 1497.70 366.53
  Q 1497.50 366.47 1497.36 366.53
  Z
  M 1499.03 367.10
  Q 1498.67 367.07 1498.60 367.16
  A 0.27 0.26 -5.4 0 0 1499.02 367.49
  Q 1499.10 367.41 1499.13 367.23
  A 0.11 0.11 0.0 0 0 1499.03 367.10
  Z
  M 1496.01 367.49
  Q 1495.90 367.38 1495.61 367.35
  A 0.28 0.19 -27.9 0 0 1495.39 367.77
  Q 1495.79 367.82 1495.98 367.72
  A 0.14 0.14 0.0 0 0 1496.01 367.49
  Z
  M 1497.14 368.08
  Q 1497.07 368.09 1496.89 368.44
  A 0.29 0.29 0.0 0 0 1497.15 368.87
  Q 1497.19 368.87 1497.41 368.71
  A 0.35 0.35 0.0 0 0 1497.14 368.08
  Z"
/>
<path fill="#ffffff" d="
  M 1497.36 366.53
  Q 1497.50 366.47 1497.70 366.53
  A 0.12 0.12 0.0 0 1 1497.69 366.76
  L 1497.44 366.80
  A 0.14 0.14 0.0 0 1 1497.36 366.53
  Z"
/>
<path fill="#ffffff" d="
  M 1499.13 367.23
  Q 1499.10 367.41 1499.02 367.49
  A 0.27 0.26 -5.4 0 1 1498.60 367.16
  Q 1498.67 367.07 1499.03 367.10
  A 0.11 0.11 0.0 0 1 1499.13 367.23
  Z"
/>
<path fill="#ffffff" d="
  M 1495.98 367.72
  Q 1495.79 367.82 1495.39 367.77
  A 0.28 0.19 -27.9 0 1 1495.61 367.35
  Q 1495.90 367.38 1496.01 367.49
  A 0.14 0.14 0.0 0 1 1495.98 367.72
  Z"
/>
<path fill="#ffffff" d="
  M 1497.41 368.71
  Q 1497.19 368.87 1497.15 368.87
  A 0.29 0.29 0.0 0 1 1496.89 368.44
  Q 1497.07 368.09 1497.14 368.08
  A 0.35 0.35 0.0 0 1 1497.41 368.71
  Z"
/>
<path fill="#033047" d="
  M 560.52 1200.74
  L 626.90 942.95
  A 0.31 0.31 0.0 0 1 627.38 942.77
  L 746.83 1031.03
  A 0.31 0.31 0.0 0 1 746.85 1031.50
  L 561.03 1201.05
  A 0.31 0.31 0.0 0 1 560.52 1200.74
  Z"
/>
</svg>
