<?xml version="1.0" encoding="UTF-8" standalone="no"?>
<!DOCTYPE svg PUBLIC "-//W3C//DTD SVG 1.1//EN" "http://www.w3.org/Graphics/SVG/1.1/DTD/svg11.dtd">
<svg xmlns="http://www.w3.org/2000/svg" version="1.1" viewBox="0.00 0.00 1563.00 1563.00">
<path fill="#cce6f4" d="
  M 1563.00 0.00
  L 1563.00 1563.00
  L 0.00 1563.00
  L 0.00 0.00
  L 1563.00 0.00
  Z
  M 1496.05 367.38
  A 0.13 0.13 0.0 0 1 1495.99 367.54
  L 421.73 882.97
  A 0.71 0.71 0.0 0 0 421.37 883.85
  L 531.79 1194.80
  A 0.20 0.20 0.0 0 0 532.18 1194.77
  L 588.57 913.29
  A 1.27 1.27 0.0 0 1 589.16 912.45
  L 1496.19 368.88
  A 0.18 0.17 -31.8 0 1 1496.43 368.93
  L 1496.43 368.94
  A 0.18 0.17 -34.2 0 1 1496.38 369.18
  L 637.52 921.95
  A 0.37 0.36 -44.2 0 0 637.51 922.56
  L 1054.27 1202.22
  A 0.48 0.47 -58.8 0 0 1054.95 1202.05
  L 1507.35 362.47
  A 0.35 0.35 0.0 0 0 1506.95 361.97
  Q 55.89 764.55 55.43 764.67
  Q 55.04 764.77 54.90 764.98
  A 0.15 0.14 25.8 0 0 54.98 765.20
  L 400.59 861.85
  A 1.42 1.41 40.7 0 0 401.58 861.78
  L 1495.89 367.32
  A 0.13 0.12 -25.4 0 1 1496.05 367.37
  L 1496.05 367.38
  Z
  M 560.53 1200.71
  A 0.32 0.32 0.0 0 0 561.05 1201.03
  L 746.84 1031.51
  A 0.32 0.32 0.0 0 0 746.82 1031.02
  L 627.39 942.78
  A 0.32 0.32 0.0 0 0 626.89 942.96
  L 560.53 1200.71
  Z"
/>
<path fill="#033047" d="
  M 1496.05 367.38
  L 1496.05 367.37
  A 0.13 0.12 -25.4 0 0 1495.89 367.32
  L 401.58 861.78
  A 1.42 1.41 40.7 0 1 400.59 861.85
  L 54.98 765.20
  A 0.15 0.14 25.8 0 1 54.90 764.98
  Q 55.04 764.77 55.43 764.67
  Q 55.89 764.55 1506.95 361.97
  A 0.35 0.35 0.0 0 1 1507.35 362.47
  L 1054.95 1202.05
  A 0.48 0.47 -58.8 0 1 1054.27 1202.22
  L 637.51 922.56
  A 0.37 0.36 -44.2 0 1 637.52 921.95
  L 1496.38 369.18
  A 0.18 0.17 -34.2 0 0 1496.43 368.94
  L 1496.43 368.93
  A 0.18 0.17 -31.8 0 0 1496.19 368.88
  L 589.16 912.45
  A 1.27 1.27 0.0 0 0 588.57 913.29
  L 532.18 1194.77
  A 0.20 0.20 0.0 0 1 531.79 1194.80
  L 421.37 883.85
  A 0.71 0.71 0.0 0 1 421.73 882.97
  L 1495.99 367.54
  A 0.13 0.13 0.0 0 0 1496.05 367.38
  Z
  M 1499.13 367.47
  A 0.33 0.24 2.4 0 0 1498.69 367.13
  Q 1498.61 367.15 1498.41 367.31
  A 0.25 0.25 0.0 0 0 1498.57 367.75
  Q 1498.90 367.75 1499.13 367.47
  Z
  M 1497.13 368.06
  Q 1497.08 368.07 1496.89 368.45
  A 0.29 0.29 0.0 0 0 1497.16 368.87
  Q 1497.17 368.87 1497.41 368.71
  A 0.36 0.36 0.0 0 0 1497.13 368.06
  Z"
/>
<path fill="#cce6f4" d="
  M 1499.13 367.47
  Q 1498.90 367.75 1498.57 367.75
  A 0.25 0.25 0.0 0 1 1498.41 367.31
  Q 1498.61 367.15 1498.69 367.13
  A 0.33 0.24 2.4 0 1 1499.13 367.47
  Z"
/>
<path fill="#cce6f4" d="
  M 1497.41 368.71
  Q 1497.17 368.87 1497.16 368.87
  A 0.29 0.29 0.0 0 1 1496.89 368.45
  Q 1497.08 368.07 1497.13 368.06
  A 0.36 0.36 0.0 0 1 1497.41 368.71
  Z"
/>
<path fill="#033047" d="
  M 560.53 1200.71
  L 626.89 942.96
  A 0.32 0.32 0.0 0 1 627.39 942.78
  L 746.82 1031.02
  A 0.32 0.32 0.0 0 1 746.84 1031.51
  L 561.05 1201.03
  A 0.32 0.32 0.0 0 1 560.53 1200.71
  Z"
/>
</svg>
